<?xml version="1.0" encoding="utf-8"?>
<!-- Generator: Adobe Illustrator 21.0.0, SVG Export Plug-In . SVG Version: 6.00 Build 0)  -->
<svg version="1.1" id="Layer_1" xmlns="http://www.w3.org/2000/svg" xmlns:xlink="http://www.w3.org/1999/xlink" x="0px" y="0px"
	 viewBox="0 0 619.2 101.2" style="enable-background:new 0 0 619.2 101.2;" xml:space="preserve">
<style type="text/css">
	.st0{fill:#FAFAF9;}
	.st1{fill:#6193C5;}
</style>
<g>
	<g>
		<g>
			<circle class="st0" cx="51" cy="50" r="43.7"/>
			<path class="st1" d="M50.6,0C22.6,0,0,22.7,0,50.6s22.7,50.6,50.6,50.6c28,0,50.6-22.7,50.6-50.6S78.6,0,50.6,0z M35.6,76.8H18.9
				V64.2l16.7-4.4C35.6,59.8,35.6,76.8,35.6,76.8z M59,76.8H42.3V20.2l16.7-5V76.8z M82.4,76.8H65.7V39l16.7-5.1V76.8z"/>
		</g>
	</g>
	<g>
		<path class="st1" d="M136.7,61h-3.2v16.9h-12.6V27h16.4c12.4,0,20,5.5,20,16.6C157.3,55.1,149.1,61,136.7,61z M136.5,36.5h-3.2v15
			h3c5.6,0,8.7-2.4,8.7-7.7C145,38.9,142.1,36.5,136.5,36.5z"/>
		<path class="st1" d="M176.8,78.6c-10,0-17.3-7.2-17.3-18.7c0-11.6,7.4-18.9,17.3-18.9c10,0,17.4,7.2,17.4,18.8
			C194.3,71.4,186.8,78.6,176.8,78.6z M176.9,50.1c-4.3,0-6.6,3.8-6.6,9.7c0,5.8,2.4,9.8,6.6,9.8c4.3,0,6.6-3.9,6.6-9.7
			C183.5,54,181.1,50.1,176.9,50.1z"/>
		<path class="st1" d="M253.9,77.9V27h31.7v10.1h-19.3v9.3h14.8v10.4h-14.8v11h20v10.1H253.9z"/>
		<path class="st1" d="M311.5,78h-11.1l-12.3-35.4l10.8-1.4l7.9,22.9l7.2-22.3h10.3L311.5,78z"/>
		<path class="st1" d="M358.4,62.6h-21.7c0.6,5.7,4,7.9,8.8,7.9c4,0,4.9-0.9,8.9-3.2l3.5,7.2c-3.9,2.5-8.1,4.1-13.8,4.1
			c-10.8,0-18.6-5.8-18.6-18.7c0-11.8,7.2-19,17-19c11.1,0,16,8.3,16,18.7C358.7,60.8,358.6,62,358.4,62.6z M342.4,48.2
			c-3.1,0-5.3,2.7-5.7,8.3h11.4C347.7,51,345.8,48.2,342.4,48.2z"/>
		<path class="st1" d="M375.5,57.8v20.1h-10.9V41.7h10.9v7.2c2.2-4.1,5.2-6.9,10.5-7.3l0.1,9.6C380.8,51.5,378.3,54.9,375.5,57.8z"
			/>
		<path class="st1" d="M413.4,78.6c-3.2,9.4-7.7,12.7-15.6,12.7c-2.2,0-3.2-0.2-4.2-0.4v-8.3c1.2,0.4,0.9,0,3,0c2.5,0,4.7-1,5.9-3.5
			l0.4-1.1l-13.1-35.3l10.8-1.4l8.2,22.8l7.2-22.3h10.2L413.4,78.6z"/>
		<path class="st1" d="M471.2,77.9h-10l-5.9-20.7l-5.8,20.7h-10.1l-9.9-35.3l10.3-1.4l6.1,21.6l5.7-21.1h8.3l6.3,21l5.4-21h9.7
			L471.2,77.9z"/>
		<path class="st1" d="M556.5,62.6h-21.7c0.6,5.7,4,7.9,8.8,7.9c4,0,4.9-0.9,8.9-3.2l3.5,7.2c-3.9,2.5-8.1,4.1-13.8,4.1
			c-10.8,0-18.6-5.8-18.6-18.7c0-11.8,7.2-19,17-19c11.1,0,16,8.3,16,18.7C556.7,60.8,556.7,62,556.5,62.6z M540.4,48.2
			c-3.1,0-5.3,2.7-5.7,8.3h11.4C545.8,51,543.8,48.2,540.4,48.2z"/>
		<path class="st1" d="M573,57.8v20.1h-10.9V41.7H573v6.6c2.2-4.1,5.2-6.3,10.5-6.7l0.1,9.6C578.3,51.5,575.8,54.9,573,57.8z"/>
		<path class="st1" d="M619.2,62.6h-21.7c0.6,5.7,4,7.9,8.8,7.9c4,0,4.9-0.9,8.9-3.2l3.5,7.2c-3.9,2.5-8.1,4.1-13.8,4.1
			c-10.8,0-18.6-5.8-18.6-18.7c0-11.8,7.2-19,17-19c11.1,0,16,8.3,16,18.7C619.4,60.8,619.4,62,619.2,62.6z M603.1,48.2
			c-3.1,0-5.3,2.7-5.7,8.3h11.4C608.4,51,606.5,48.2,603.1,48.2z"/>
		<rect x="218.5" y="26.1" class="st1" width="11.2" height="51.7"/>
		<rect x="200.4" y="26.1" class="st1" width="11.2" height="51.7"/>
		<path class="st1" d="M486.5,26.1v51.7h11.1V54.1c2-2,4-3.2,6.1-3.2c2.7,0,3.7,1.8,3.7,4.4v22.6h11.2V52.2c0-7-3.5-11.2-10.3-11.2
			c-4.4,0-7.7,2.3-10.8,5.2V26.1L486.5,26.1L486.5,26.1z"/>
	</g>
</g>
</svg>
